<svg width="53" height="41" viewBox="0 0 53 41" fill="none" xmlns="http://www.w3.org/2000/svg">
<path d="M46.3724 6.83594H4.41406V10.2526H9.49323L17.2688 26.7944C17.5794 27.453 18.144 28.0219 18.886 28.4242C19.6281 28.8266 20.512 29.043 21.4182 29.0443H39.7474V25.6276H21.4182L19.8106 22.2109H39.7474C40.6307 22.2109 41.4301 21.8044 41.7769 21.1757L48.4019 9.21736C48.547 8.95759 48.6063 8.67394 48.5744 8.39201C48.5424 8.11008 48.4203 7.83874 48.2189 7.60245C48.0175 7.36617 47.7433 7.17238 47.4209 7.03856C47.0986 6.90475 46.7382 6.83511 46.3724 6.83594V6.83594Z" fill="white"/>
<path d="M23.1875 35.875C25.0169 35.875 26.5 34.7277 26.5 33.3125C26.5 31.8973 25.0169 30.75 23.1875 30.75C21.3581 30.75 19.875 31.8973 19.875 33.3125C19.875 34.7277 21.3581 35.875 23.1875 35.875Z" fill="white"/>
<path d="M36.4375 35.875C38.2669 35.875 39.75 34.7277 39.75 33.3125C39.75 31.8973 38.2669 30.75 36.4375 30.75C34.6081 30.75 33.125 31.8973 33.125 33.3125C33.125 34.7277 34.6081 35.875 36.4375 35.875Z" fill="white"/>
</svg>
